<?xml version="1.0" encoding="utf-8"?>
<!-- Generator: Adobe Illustrator 19.2.0, SVG Export Plug-In . SVG Version: 6.00 Build 0)  -->
<svg version="1.1" id="Capa_1" xmlns="http://www.w3.org/2000/svg" xmlns:xlink="http://www.w3.org/1999/xlink" x="0px" y="0px"
	 viewBox="0 0 49.7 49.7" style="enable-background:new 0 0 49.7 49.7;" xml:space="preserve">
<style type="text/css">
	.st0{fill:#CCCCCC;}
	.st1{fill:url(#SVGID_1_);}
</style>
<g>
	<rect x="29.2" y="16.8" width="7.5" height="2.3"/>
	<path d="M33.2,23c-2.8,0-3.2,2.8-3.2,2.8h6C36,25.7,36,23,33.2,23z M33.4,31.4c3,0,2.9-2,2.9-2h3.2c0,5.2-6.3,4.9-6.3,4.9
		c-7.5,0-7-7-7-7s0-7,7-7c7.4,0,6.4,7.9,6.4,7.9H30C30,31.7,33.4,31.4,33.4,31.4z"/>
	<path d="M19.6,25.8h-5.3v4.9H19c0.1,0,0.2,0,0.3,0c0.8,0,2.2-0.2,2.2-2.4C21.5,25.8,19.7,25.8,19.6,25.8z M19.4,23
		c0.9,0,1.6-0.3,1.6-2.2s-1.3-1.9-1.3-1.9H19h-4.6V23H19.4z M22,24c3.7,0,3.4,4.5,3.4,4.5c0,5.6-5.8,5.4-5.8,5.4h-5.3h-0.2h-4V15.6
		h4h0.2h5.3c2.9,0,5.2,1.6,5.2,4.9C24.9,23.8,22,24,22,24z"/>
	<path class="st0" d="M36,25.8h-6c0,0,0.4-2.8,3.2-2.8C36,23,36,25.7,36,25.8z"/>
	
		<radialGradient id="SVGID_1_" cx="24.85" cy="764.923" r="24.8365" gradientTransform="matrix(1 0 0 1 0 -740)" gradientUnits="userSpaceOnUse">
		<stop  offset="8.044409e-002" style="stop-color:#FFFFFF"/>
		<stop  offset="1" style="stop-color:#000000"/>
	</radialGradient>
	<path class="st1" d="M25.5,28.6c0,0,0.3-4.5-3.4-4.5c0,0,2.8-0.2,2.8-3.5s-2.3-4.9-5.2-4.9h-5.3h-0.2h-4V34h4h0.2h5.3
		C19.6,34,25.5,34.1,25.5,28.6z M36.2,29.5c0,0,0.1,2-2.9,2c0,0-3.2,0.2-3.2-3.2h9.5c0,0,1-7.9-6.4-7.9c-7,0-7,7-7,7s-0.5,7,7,7
		c0,0,6.3,0.4,6.3-4.9H36.2z M36.9,19v-2.2h-7.5v2.3L36.9,19L36.9,19z M24.9,0.1c13.7,0,24.8,11.1,24.8,24.8
		c0,13.7-11.1,24.8-24.8,24.8S0,38.5,0,24.9C0,11.3,11.1,0.1,24.9,0.1z"/>
	<path class="st0" d="M21.5,28.3c0,2.1-1.4,2.4-2.2,2.4c-0.1,0-0.3,0-0.3,0h-4.7v-4.9h5.3C19.7,25.8,21.5,25.8,21.5,28.3z"/>
	<path class="st0" d="M21,20.8c0,1.9-0.8,2.2-1.6,2.2h-5v-4.1H19h0.7C19.6,18.9,21,18.9,21,20.8z"/>
</g>
</svg>
