<?xml version="1.0" encoding="utf-8"?>
<!-- Generator: Adobe Illustrator 19.1.0, SVG Export Plug-In . SVG Version: 6.00 Build 0)  -->
<svg version="1.1" id="Capa_1" xmlns="http://www.w3.org/2000/svg" xmlns:xlink="http://www.w3.org/1999/xlink" x="0px" y="0px"
	 viewBox="-107 282.3 49.7 49.7" style="enable-background:new -107 282.3 49.7 49.7;" xml:space="preserve">
<style type="text/css">
	.st0{fill:url(#SVGID_1_);}
</style>
<g>
	<g id="XMLID_1_">
		<g>
			<path d="M-75.5,303L-76,308h-4c0,6.4,0,14.4,0,14.4h-6c0,0,0-7.9,0-14.4h-2.9V303h2.9v-3.3c0-2.4,1.1-6,6-6l4.4,0v4.9
				c0,0-2.7,0-3.2,0c-0.5,0-1.3,0.3-1.3,1.4v3H-75.5z"/>
			<radialGradient id="SVGID_1_" cx="-82.175" cy="307.173" r="24.825" gradientUnits="userSpaceOnUse">
				<stop  offset="0.2041" style="stop-color:#FFFFFF"/>
				<stop  offset="1" style="stop-color:#000000"/>
			</radialGradient>
			<path class="st0" d="M-82.2,282.3c13.7,0,24.8,11.1,24.8,24.8c0,13.7-11.1,24.8-24.8,24.8c-13.7,0-24.8-11.1-24.8-24.8
				C-107,293.5-95.9,282.3-82.2,282.3z M-76,308l0.5-5.1H-80v-3c0-1.1,0.8-1.4,1.3-1.4c0.5,0,3.2,0,3.2,0v-4.9l-4.4,0
				c-4.9,0-6,3.7-6,6v3.3h-2.9v5.1h2.9c0,6.5,0,14.4,0,14.4h6c0,0,0-8,0-14.4H-76z"/>
		</g>
		<g>
		</g>
	</g>
</g>
</svg>
