<?xml version="1.0" encoding="utf-8"?>
<!-- Generator: Adobe Illustrator 19.1.0, SVG Export Plug-In . SVG Version: 6.00 Build 0)  -->
<svg version="1.1" id="Capa_1" xmlns="http://www.w3.org/2000/svg" xmlns:xlink="http://www.w3.org/1999/xlink" x="0px" y="0px"
	 viewBox="-107 282.3 49.7 49.7" style="enable-background:new -107 282.3 49.7 49.7;" xml:space="preserve">
<style type="text/css">
	.st0{fill:url(#SVGID_1_);}
</style>
<g>
	<g id="XMLID_1_">
		<g>
			<path d="M-68.3,298.5c-0.8,1.1-1.7,2.1-2.8,3c0,0.3,0,0.5,0,0.8c0,7.5-5.8,16.3-16.3,16.3c-3.2,0-6.2-0.9-8.8-2.6
				c0.4,0.1,0.9,0.1,1.4,0.1c2.7,0,5.1-0.9,7.1-2.5c-2.5,0-4.6-1.7-5.3-4c0.4,0.1,0.7,0.1,1.1,0.1c0.5,0,1-0.1,1.5-0.2
				c-2.6-0.5-4.6-2.8-4.6-5.6c0,0,0-0.1,0-0.1c0.8,0.4,1.7,0.7,2.6,0.7c-1.5-1-2.5-2.8-2.5-4.8c0-1,0.3-2,0.8-2.9
				c2.8,3.5,7,5.7,11.8,6c-0.1-0.4-0.2-0.9-0.2-1.3c0-3.1,2.6-5.7,5.7-5.7c1.7,0,3.1,0.7,4.2,1.8c1.3-0.3,2.5-0.7,3.6-1.4
				c-0.4,1.3-1.3,2.5-2.5,3.2C-70.4,299.3-69.3,299-68.3,298.5z"/>
			<radialGradient id="SVGID_1_" cx="-82.175" cy="307.173" r="24.825" gradientUnits="userSpaceOnUse">
				<stop  offset="0.2041" style="stop-color:#FFFFFF"/>
				<stop  offset="1" style="stop-color:#000000"/>
			</radialGradient>
			<path class="st0" d="M-82.2,282.3c13.7,0,24.8,11.1,24.8,24.8c0,13.7-11.1,24.8-24.8,24.8c-13.7,0-24.8-11.1-24.8-24.8
				C-107,293.5-95.9,282.3-82.2,282.3z M-71.1,301.5c1.1-0.8,2.1-1.8,2.8-3c-1,0.5-2.1,0.8-3.3,0.9c1.2-0.7,2.1-1.8,2.5-3.2
				c-1.1,0.6-2.3,1.1-3.6,1.4c-1-1.1-2.5-1.8-4.2-1.8c-3.2,0-5.7,2.6-5.7,5.7c0,0.5,0,0.9,0.2,1.3c-4.8-0.2-9-2.5-11.8-6
				c-0.5,0.8-0.8,1.8-0.8,2.9c0,2,1,3.7,2.5,4.8c-0.9,0-1.8-0.3-2.6-0.7c0,0,0,0,0,0.1c0,2.8,2,5.1,4.6,5.6c-0.5,0.1-1,0.2-1.5,0.2
				c-0.4,0-0.7,0-1.1-0.1c0.7,2.3,2.8,3.9,5.3,4c-2,1.5-4.4,2.5-7.1,2.5c-0.5,0-0.9,0-1.4-0.1c2.5,1.6,5.5,2.6,8.8,2.6
				c10.5,0,16.3-8.7,16.3-16.3C-71.1,302-71.1,301.7-71.1,301.5z"/>
		</g>
		<g>
		</g>
	</g>
</g>
</svg>
